<svg xmlns="http://www.w3.org/2000/svg" viewBox="0 0 57.7 48"><path d="M17.6 33.3c.2 0 .3 0 .5-.1.4-.2.7-.6.7-1.1V26h15.5c.7 0 1.2-.5 1.2-1.2s-.5-1.2-1.2-1.2H18.8v-3.2c0-.7-.5-1.2-1.2-1.2s-1.2.5-1.2 1.2v8.8L3 16.7 16.4 4v4.5c0 .3.1.6.4.9.2.2.5.4.9.4h32c.3 0 .6-.1.8-.3l4.4-4.1c.5-.5.5-1.2.1-1.7-.5-.5-1.2-.5-1.7-.1l-4.1 3.8H18.8V1.2c0-.5-.3-.9-.7-1.1-.4-.2-1-.1-1.3.2L.4 15.8c-.3.2-.4.5-.4.9 0 .3.1.6.4.9L16.7 33c.3.2.6.3.9.3z"/><path d="M57.3 30.5L40.9 15c-.4-.3-.9-.4-1.3-.2s-.7.6-.7 1.1v6.5c0 .7.5 1.2 1.2 1.2s1.2-.5 1.2-1.2v-3.7l13.4 12.7L41.3 44v-3.8c0-.3-.1-.6-.4-.9-.2-.2-.5-.4-.9-.4H23.4l-9.6-.1c-.3 0-.5.1-.8.3l-5.5 4.3c-.5.4-.6 1.2-.2 1.7.4.5 1.2.6 1.7.2l5.2-4.1 9.2.1h15.5v5.4c0 .5.3.9.7 1.1.2.1.3.1.5.1.3 0 .6-.1.8-.3l16.4-15.5c.2-.2.4-.5.4-.9 0-.2-.2-.5-.4-.7z"/></svg>