<svg xmlns="http://www.w3.org/2000/svg" width="15" height="15" viewBox="0 0 15 15"><path data-name="Forma 1" class="cls-1" d="M7.5 10.313c2.33 0 4.22-2.313 4.22-5.156S9.83 0 7.5 0a3.855 3.855 0 0 0-3.02 1.549 5.8 5.8 0 0 0-1.2 3.607c0 2.844 1.89 5.157 4.22 5.157zm0-9.375c1.81 0 3.28 1.892 3.28 4.219S9.31 9.376 7.5 9.376 4.22 7.483 4.22 5.157 5.69.938 7.5.938zm3.28 8.437a.469.469 0 1 0 0 .938 3.284 3.284 0 0 1 3.28 3.281.469.469 0 0 1-.47.468H1.41a.469.469 0 0 1-.47-.468 3.284 3.284 0 0 1 3.28-3.281.469.469 0 1 0 0-.937A4.222 4.222 0 0 0 0 13.595 1.408 1.408 0 0 0 1.41 15h12.18A1.408 1.408 0 0 0 15 13.594a4.222 4.222 0 0 0-4.22-4.219z"/></svg>